<svg xmlns="http://www.w3.org/2000/svg" viewBox="0 0 100 100">
  <defs>
    <linearGradient id="bg" x1="0%" y1="0%" x2="100%" y2="100%">
      <stop offset="0%" stop-color="#2d6a4f"/>
      <stop offset="100%" stop-color="#1b4332"/>
    </linearGradient>
    <linearGradient id="leaf" x1="0%" y1="0%" x2="0%" y2="100%">
      <stop offset="0%" stop-color="#95d5b2"/>
      <stop offset="100%" stop-color="#52b788"/>
    </linearGradient>
  </defs>
  <rect width="100" height="100" rx="24" fill="url(#bg)"/>
  <path d="M50 15 C28 18 18 38 22 60 C25 75 38 82 50 78 C62 82 75 75 78 60 C82 38 72 18 50 15 Z" fill="url(#leaf)"/>
  <path d="M50 15 L50 78" stroke="#2d6a4f" stroke-width="2.5" stroke-linecap="round"/>
  <path d="M50 30 C40 33 34 42 36 50" stroke="#2d6a4f" stroke-width="1.8" fill="none" stroke-linecap="round"/>
  <path d="M50 30 C60 33 66 42 64 50" stroke="#2d6a4f" stroke-width="1.8" fill="none" stroke-linecap="round"/>
  <path d="M50 45 C40 48 34 57 36 65" stroke="#2d6a4f" stroke-width="1.8" fill="none" stroke-linecap="round"/>
  <path d="M50 45 C60 48 66 57 64 65" stroke="#2d6a4f" stroke-width="1.8" fill="none" stroke-linecap="round"/>
  <path d="M50 58 C44 60 40 66 42 72" stroke="#2d6a4f" stroke-width="1.5" fill="none" stroke-linecap="round"/>
  <path d="M50 58 C56 60 60 66 58 72" stroke="#2d6a4f" stroke-width="1.5" fill="none" stroke-linecap="round"/>
  <circle cx="50" cy="78" r="3" fill="#1b4332"/>
</svg>
